<svg width="16" height="15" xmlns="http://www.w3.org/2000/svg"><path d="M14.355 3.627c.01.155.01.31.01.465 0 4.729-3.299 10.178-9.33 10.178A8.715 8.715 0 010 12.664c.264.033.518.044.792.044 1.533 0 2.944-.564 4.07-1.528-1.44-.033-2.649-1.063-3.065-2.48.203.032.406.055.62.055.294 0 .588-.045.862-.122C1.777 8.3.65 6.86.65 5.122v-.044c.437.265.945.432 1.483.454C1.249 4.889.67 3.792.67 2.552A3.8 3.8 0 011.117.747c1.614 2.17 4.04 3.589 6.761 3.744a4.391 4.391 0 01-.081-.82c0-1.971 1.462-3.577 3.28-3.577.943 0 1.796.432 2.395 1.13A6.14 6.14 0 0015.553.36a3.53 3.53 0 01-1.441 1.97c.66-.077 1.3-.276 1.888-.553a7.432 7.432 0 01-1.645 1.85z"/></svg>