<svg xmlns="http://www.w3.org/2000/svg" width="400" height="62.5"><path d="M397.167.109c-.229.035-1.317.179-2.417.321-1.1.142-2.15.324-2.333.405-.184.081-1.346.269-2.584.419-1.237.149-2.4.338-2.583.421-.183.082-1.458.268-2.833.413-1.375.145-2.65.332-2.834.414-.183.083-1.683.272-3.333.421-1.65.149-3.15.336-3.333.415-.184.079-1.984.268-4 .42-2.017.152-3.817.337-4 .412-.325.132-8.391.673-9.945.667-.428-.002-.803.06-.833.137-.059.15-6.96.468-13.556.624-2.2.052-4.15.161-4.333.242-1.338.593-127.357.595-127.75.002-.046-.069-4.321-.172-9.5-.229-20.116-.221-37.754-.508-37.833-.616-.046-.063-3.384-.16-7.417-.217-22.321-.314-31.03-.488-31.289-.626-.16-.085-1.135-.152-2.167-.149-5.068.013-33.587-.553-33.877-.672-.184-.076-7.871-.269-17.084-.429-9.212-.161-16.787-.341-16.833-.402-.046-.06-7.283-.273-16.083-.472-8.8-.199-19.788-.467-24.417-.597-4.629-.13-9.673-.243-11.208-.251L0 1.167v48.459l3.458.121c1.902.067 3.534.178 3.625.246.092.068 3.429.261 7.417.428 3.987.168 7.287.354 7.333.414.046.06 3.346.24 7.334.4 3.987.16 7.4.354 7.583.431.183.077 3.521.265 7.417.418 3.896.153 7.195.324 7.333.38.137.055 3.587.273 7.667.484 19.621 1.013 22.267 1.161 22.5 1.256.137.056 3.587.233 7.666.393 4.079.161 7.454.342 7.5.404.046.061 3.496.242 7.667.402 4.171.16 7.733.354 7.917.432.183.077 3.708.265 7.833.418 4.125.152 7.65.339 7.833.415.184.077 3.896.264 8.25.417 4.355.153 8.067.34 8.25.415.306.126 5.537.338 15.084.61 2.062.059 3.787.157 3.833.219.046.061 3.796.249 8.333.418 4.538.169 8.288.357 8.334.419.046.061 3.57.242 7.833.403 4.262.161 7.9.356 8.083.433.184.077 3.971.271 8.417.431 4.446.16 8.121.342 8.167.404.046.062 3.983.244 8.75.404 4.766.16 8.816.353 9 .428 1.75.72 43.496.966 126.041.741L400 62.292V0l-1.208.023c-.665.012-1.396.051-1.625.086" fill="#34a4bc" fill-rule="evenodd"/></svg>