<svg xmlns="http://www.w3.org/2000/svg" width="400" height="518.421">
    <g fill-rule="evenodd">
        <path d="M6.108.467c.254.7-.653 1.336-1.662 1.166-.355-.059-.468.134-.313.537.153.397.025.63-.346.63-.541 0-.772.498-.62 1.342.033.188-.136.58-.377.87-.725.874-.797 3.087-.845 26.088-.025 12.323-.2 22.1-.395 22.1-.193 0-.35 1.26-.35 2.8 0 1.804.16 2.8.449 2.8.31 0 .295.185-.049.6-.35.422-.363.6-.044.6.43 0 .294 23.672-.14 24.374-.088.142-.127 4.779-.088 10.304.047 6.608-.065 9.964-.328 9.807-.22-.131-.153.066.149.438s.392.677.2.677c-.196 0-.302 10.27-.243 23.41.094 20.614.034 23.438-.5 23.643-.913.35-.919 32.947-.006 32.947.639 0 .632-.762.61 69.1-.004 12.815.127 23.301.291 23.301.335.001.255 40.216-.103 52.538-.132 4.529-.076 8.137.131 8.4.213.271.393 32.206.437 77.445.05 51.231.211 77.147.48 77.472.243.292.373 2.961.324 6.664-.044 3.398.016 6.335.135 6.529.119.193.177 2.061.13 4.151-.048 2.09.015 4.16.139 4.6.222.787.574.8 21.626.814 49.108.031 52.853.101 53.085.991.233.89 18.915 1.288 18.915.402 0-.242-3.561-.436-9.3-.507l-9.3-.115 9.687-.093c8.472-.08 9.659-.017 9.458.508-.204.531 4.778.6 43.369.6 38.387 0 43.628-.072 43.831-.6.196-.512 1.509-.587 8.942-.508l8.713.092-8.7.116c-5.339.071-8.7.267-8.7.508 0 .769 17.632.501 18.201-.276.689-.943-1.687-.875 40.399-1.15 31.158-.204 38.718-.356 40.084-.806 1.278-.422 4.627-.563 13.9-.588 7.387-.019 12.216-.181 12.216-.41 0-.519 11.879-.498 12.2.022.136.22.462.397.724.394.292-.004.25-.149-.109-.377-.371-.234 2.473-.381 7.751-.399 4.847-.018 8.533.132 8.805.358.45.373 56.082.704 56.451.336.091-.092.213-1.279.272-2.639.058-1.36.252-2.473.43-2.473s.214-.176.081-.392c-.133-.215-.058-.735.167-1.156.321-.599.779-22.562.806-38.599.001-.631.176-1.357.389-1.613.213-.257.25-.689.083-.96-.168-.271-.172-1.435-.009-2.586.333-2.361.901-100.85.748-129.652-.058-10.873.049-18.666.255-18.538.206.127.31-6.335.247-15.351-.096-13.643-.034-15.6.5-15.805.92-.353.929-76.148.009-76.148-.661 0-.647.913-.806-52.844-.042-14.434-.217-26.469-.387-26.744-.178-.289-.076-.65.242-.851.382-.242.401-.351.062-.355-.381-.005-.494-9.4-.515-42.906-.014-23.595-.186-43.89-.382-45.1-.505-3.125-.499-4.5.019-4.18.238.148.137-.305-.225-1.005-.514-.994-.555-1.397-.184-1.844.261-.314.302-.571.091-.571-.233 0-.358-2.945-.32-7.5.074-8.829-.028-9.311-1.937-9.161-1.023.081-1.321-.03-1.166-.435.156-.407-.046-.481-.798-.292-.566.142-1.124.064-1.274-.18-.483-.781-6.512-.55-6.988.268-.276.475-.412.523-.42.151-.01-.443-.128-.452-.612-.051-.33.274-.6.35-.6.169 0-.181-.216-.113-.48.151-.608.608-2.068.642-1.695.04.191-.309.05-.325-.477-.052-.961.498-44.931.431-45.71-.07-.42-.271-.477-.22-.223.2.282.469.232.476-.303.043-.476-.386-.714-.401-.926-.058-.211.341-.37.327-.606-.055-.26-.421-.438-.418-.959.014-.547.454-.603.436-.387-.125.14-.366.055-.657-.191-.657-.244 0-.446.225-.449.5-.004.347-.117.324-.37-.074-.275-.435-.495-.465-.907-.123-.335.278-.764.315-1.117.097-.342-.211-.763-.196-1.044.037-.314.26-.652.218-1.014-.128-.423-.405-3.469-.514-13.87-.497-7.33.012-13.411-.114-13.514-.28-.102-.166-.66-.121-1.239.099-.78.297-1.137.267-1.38-.115-.261-.412-.328-.405-.333.033-.005.454-.115.459-.636.026-.523-.434-.7-.425-1.031.051-.287.412-.455.44-.594.101-.133-.326-1.015-.414-2.819-.282-2.122.155-2.585.086-2.414-.36.116-.303-.033-.552-.333-.552-.299 0-.451.15-.338.334.114.183.016.333-.217.333-.233 0-.424-.157-.424-.348 0-.192-9.293-.399-20.7-.46-11.385-.061-23.58-.129-27.1-.152-4.319-.027-6.684-.203-7.274-.54-1.086-.622-2.526-.651-2.526-.051 0 .318-.148.326-.51.026-.485-.402-4.016-.478-29.09-.627-4.51-.026-8.453-.211-8.762-.41-.388-.25-.473-.219-.276.1.187.303-.067.462-.738.462-.563 0-1.024-.199-1.024-.443 0-.243-.27-.333-.6-.2l-1.266.511c-.407.164-.567.109-.412-.142.158-.256-.156-.345-.834-.237-.852.136-.958.081-.488-.252.471-.333.298-.425-.8-.425-1.05 0-1.25.097-.8.388.457.295.298.389-.667.394-.696.003-1.328-.179-1.403-.404-.09-.27-5.827-.441-16.733-.499-10.527-.056-16.704-.236-16.891-.49-.189-.259-.296-.243-.3.044-.003.245-.411.418-.906.384-.495-.034-.855-.279-.8-.545.116-.562-.547-.655-.875-.124-.338.546-3.004.451-2.793-.1.13-.339-2.598-.477-10.328-.523-16.192-.097-19.647-.198-20.404-.596-.453-.239-.7-.223-.7.045 0 .564-1.096.527-1.286-.043-.184-.554-2.314-.844-2.314-.316 0 .205-.191.373-.424.373-.233 0-.312-.18-.176-.4.23-.372-5.357-.49-22.1-.467-3.673.005-4.9-.119-4.9-.497 0-.276-.27-.503-.6-.503-.33 0-.6.24-.6.534 0 .293-.27.533-.6.533-.33 0-.6-.191-.6-.424 0-.233.225-.296.5-.141.374.211.369.142-.017-.273-.44-.473-.568-.471-.869.016-.282.455-.472.471-.943.081-.426-.354-3.571-.519-11.304-.593-7.918-.076-10.755-.229-10.873-.584-.088-.265-.336-.482-.551-.482-.215 0-.255.225-.09.5.217.36.118.352-.355-.031-.479-.389-2.568-.556-7.789-.623-3.924-.05-7.339-.217-7.588-.371-.249-.154-.527-.058-.617.214-.119.357-.489.279-1.335-.281-1.383-.918-2.758-1.237-2.328-.541.209.338.077.369-.475.11-.421-.198-2.778-.419-5.237-.492-3.277-.097-4.598-.286-4.949-.709-.263-.317-.757-.576-1.097-.576-.341 0-.924-.275-1.295-.611-.372-.336-1.556-.653-2.632-.705-1.076-.051-2.181-.237-2.456-.412-.307-.196-.502-.118-.506.204-.005.411-.081.405-.355-.027-.192-.303-.55-.428-.794-.277-.272.168-.445-.046-.445-.548 0-.905-.615-1.117-.935-.324-.161.4-.208.4-.233 0-.018-.275-.411-.5-.875-.5-.629 0-.781.178-.599.7.232.667.218.667-.301 0-.77-.989-2.143-.89-2.482.179l-.279.88-.815-.98C6.222.227 5.972.091 6.108.467" fill="#ecfcfc" />
    </g>
</svg>