<svg xmlns="http://www.w3.org/2000/svg" width="400" height="20.647">
    <path d="M398.375.191c-.237.238-1.243.334-1.103.106.057-.092-.047-.084-.24.019-.188.101-.459.138-.603.082-.151-.058-.262-.013-.262.105 0 .139-.161.173-.5.105-.309-.061-.5-.031-.5.081 0 .099-.113.137-.252.084-.138-.054-.457-.017-.708.081-.251.098-.757.198-1.124.221-.366.023-.81.104-.985.179-.225.096-.284.079-.2-.057.078-.126.03-.159-.139-.094-.143.055-.259.166-.259.248 0 .082-.113.149-.25.149s-.251-.094-.253-.208c-.001-.141-.052-.13-.157.037-.085.134-.209.191-.274.126-.065-.065-.201-.055-.301.024-.313.245-1.641.392-1.502.166.085-.137.051-.151-.112-.046-.203.13-1.24.326-3.484.659-.625.093-1.198.198-1.334.246-.046.015-.327.031-.625.034-.298.003-.541.075-.541.16s-.075.109-.167.052c-.092-.057-.259-.046-.372.024-.29.179-.797.198-.69.025.049-.079-.124-.096-.383-.037-.259.059-.64.123-.845.143-.206.02-.422.085-.481.143-.058.059-.255.027-.438-.07-.239-.128-.3-.127-.218.005.062.101.053.188-.021.194a114.143 114.143 0 01-2.385.236c-.688.061-1.276.184-1.308.273-.036.1-.14.094-.272-.016-.148-.123-.351-.125-.664-.006-.248.095-.528.124-.622.066-.095-.058-.237-.003-.317.124-.111.174-.146.178-.148.015-.002-.148-.092-.169-.294-.068-.161.08-.678.139-1.151.131-.472-.008-.833.026-.802.077.031.051-.182.102-.474.113-1.102.044-3.365.293-3.365.37 0 .019-.2.05-.445.068-.245.018-.41-.025-.366-.097.108-.174-.133-.16-.425.025-.13.082-.396.088-.592.014-.196-.074-.469-.072-.607.005s-.929.18-1.756.228c-.828.048-1.642.141-1.809.205-.234.09-.272.062-.162-.12.113-.187.092-.198-.098-.051a.957.957 0 01-.49.185c-.458-.002-1.891.229-2.056.331-.095.058-.108.012-.032-.11.094-.154.038-.182-.208-.104-.185.059-.776.139-1.312.178-.536.039-1.144.107-1.35.151-.207.044-.375.026-.375-.04 0-.175-1.504-.086-2.042.122-.329.127-.458.125-.458-.007 0-.121-.084-.113-.25.025-.173.143-.25.15-.25.02 0-.102-.08-.187-.177-.187-.097 0-.14.059-.096.13.1.163-.59.142-.861-.026-.11-.068-.2-.063-.2.011 0 .075-.187.146-.415.159-.252.015-.373-.045-.308-.15.07-.114.026-.124-.126-.029-.129.08-.347.165-.484.188-.869.148-1.333.15-1.333.007 0-.093-.102-.079-.235.031-.162.134-.27.14-.344.02-.073-.119-.208-.121-.42-.008-.437.234-1.052.217-.902-.025.082-.132.045-.146-.115-.045-.129.081-.684.161-1.234.178-.55.017-1.122.079-1.271.138-.364.145-1.2.044-1.352-.162-.077-.105-.123-.092-.125.033-.001.13-.335.203-.961.21-3.038.032-3.708.067-3.708.193 0 .076-.197.064-.437-.027-.306-.117-.506-.109-.667.024-.174.145-.229.141-.229-.016 0-.155-.057-.161-.224-.022-.123.102-.267.142-.319.09-.088-.087-1.512-.108-4.536-.064-.639.009-1.27.106-1.402.214-.186.154-.256.152-.31-.009-.05-.148-.158-.16-.379-.041-.198.106-.346.108-.409.005-.062-.099-.251-.103-.497-.01-.446.17-1.091.16-1.091-.017 0-.064-.412-.104-.915-.089-.504.014-.916.077-.917.139-.001.063-.226.049-.501-.03-.3-.086-.5-.081-.5.012 0 .233-.626.187-.724-.053-.055-.137-.132-.15-.222-.04-.086.104-1.716.173-4.304.18-2.292.006-5.049.071-6.127.142-1.474.099-2.021.08-2.208-.075-.172-.143-.249-.149-.249-.019 0 .125-.451.177-1.375.156l-1.375-.03 1.334-.106 1.333-.106-1.361-.03c-.767-.017-1.385.04-1.417.132-.036.106-3.153.121-8.847.042-5.073-.07-8.792-.059-8.792.026 0 .085-6.543.12-15.4.083-8.471-.035-15.378-.101-15.349-.147.028-.046-4.555-.083-10.183-.083-6.656 0-10.263-.059-10.318-.167-.049-.1-.122-.083-.18.042-.127.271-1.183.271-1.293 0-.046-.115-.09-.134-.097-.042-.014.18-.971.181-3.12.002-.908-.075-1.394-.053-1.468.068-.132.213-1.092.245-1.092.036 0-.08-.298-.09-.662-.023-.364.066-.622.056-.573-.023.048-.079.009-.143-.088-.143-.097 0-.177.056-.178.125-.001.068-.451.14-1 .159-.549.018-.999-.032-.999-.113 0-.08-.6-.133-1.333-.117-.734.016-1.334-.032-1.333-.106 0-.074-.083-.084-.183-.022-.101.062-1.094.099-2.208.081-1.114-.018-2.139-.03-2.276-.025-1.248.039-2.538.005-3.125-.082-.475-.07-.708-.043-.708.082 0 .131-.1.125-.334-.021-.266-.166-.4-.166-.666 0-.198.123-.334.14-.334.04 0-.092-.187-.168-.416-.168-.229 0-.417.079-.417.177 0 .099-.091.119-.208.046-.211-.131-1.055-.166-5.084-.207-1.623-.017-2.209-.077-2.211-.228-.001-.142-.04-.149-.125-.022-.15.224-2.872.277-2.872.056 0-.085-.15-.155-.333-.155-.184 0-.334.073-.334.162 0 .1-.146.108-.375.021-.206-.077-.525-.087-.708-.021-.438.158-3.75.192-3.75.039 0-.065-1.294-.108-2.875-.096-1.727.013-2.742-.035-2.542-.121.208-.089.083-.099-.333-.026-.367.065-2.167.092-4 .06a553.641 553.641 0 00-4.909-.065c-.91-.005-1.439-.062-1.25-.136.267-.104.275-.129.044-.139-.155-.006-.32.05-.367.125-.046.076-.369.108-.718.072-.758-.079-.776-.079-1.679.009-.392.038-.746.016-.786-.049-.04-.064-.427-.064-.86.002-.432.065-1.221.068-1.752.005-.605-.071-.987-.051-1.022.055-.037.111-.224.103-.545-.023-.301-.117-1.371-.178-2.781-.158-1.26.019-2.292-.006-2.292-.054s-.675-.088-1.5-.089c-.825-.001-1.5.051-1.5.114s-.131.087-.291.054c-1.004-.209-9.336-.424-9.034-.233.15.095.167.154.044.156a.389.389 0 01-.302-.165c-.064-.103-.773-.135-1.852-.085-.962.045-1.715.026-1.673-.041.041-.068-1.605-.123-3.658-.123s-3.734-.059-3.734-.131c0-.072-.136-.058-.302.031-.167.089-.785.126-1.375.083-.59-.044-2.209-.095-3.598-.115-1.39-.019-2.503-.073-2.475-.118.027-.046-.542-.084-1.266-.084-.725 0-1.317.041-1.317.09 0 .049-.152.101-.337.115-.185.014-.296-.04-.247-.121.051-.081-.141-.079-.434.005-.289.083-.646.089-.795.013-.149-.075-1.238-.146-2.42-.158-1.182-.011-2.286-.063-2.452-.116a.91.91 0 00-.611.069c-.194.104-.554.11-.965.017-.41-.093-.677-.089-.712.011-.03.089-.124.119-.207.067-.083-.051-.852-.115-1.708-.141-.856-.026-1.644-.101-1.751-.167-.107-.066-.194-.041-.194.056 0 .202-.548.24-.737.052-.167-.168-3.254-.161-3.15.007.045.072-.131.079-.391.016-.26-.064-.494-.171-.521-.238-.028-.067-.307-.063-.622.008-.315.071-.931.1-1.368.065a58.112 58.112 0 00-2.577-.096c-1.207-.022-1.748-.09-1.676-.21.058-.097-.036-.065-.208.073-.183.146-.262.163-.189.042.069-.115.046-.209-.051-.209-.098 0-.177.074-.177.163 0 .09-.332.149-.738.131-.457-.02-.698-.097-.634-.204.065-.11.015-.108-.138.006-.132.099-.503.153-.823.12-.321-.032-1.634-.064-2.917-.07-1.411-.007-2.375-.079-2.44-.183-.058-.095-.203-.112-.322-.039-.264.163-1.807.234-1.898.086-.081-.131-.963-.097-1.798.07-.437.087-.625.065-.625-.071 0-.107-.077-.148-.17-.09-.284.176-1.497.246-1.497.087 0-.082-.787-.132-1.75-.111-.962.021-1.75-.005-1.75-.057 0-.14-1.29-.103-1.434.04-.067.067-.278.121-.469.12-.285-.002-.302-.032-.097-.164.138-.089.171-.163.075-.164-.096-.002-.258.08-.36.182a.333.333 0 01-.409.047c-.304-.189-1.197-.184-1.335.007-.068.095-.366.072-.758-.057-.401-.132-1.002-.175-1.586-.113-.524.056-.982.031-1.036-.056-.053-.086-.397-.129-.764-.096-.386.036-.626-.004-.57-.095.053-.085.017-.155-.08-.155-.098 0-.177.068-.177.151 0 .083-.162.109-.359.057-.278-.073-.328-.041-.218.14.118.198.098.2-.131.015-.176-.143-.537-.192-1.022-.138-.488.053-.779.014-.831-.113-.056-.137-.122-.142-.218-.017-.161.207-1.966.332-1.838.126.047-.076-.434-.123-1.07-.104-.864.025-1.126-.017-1.036-.167.078-.13.024-.122-.153.021-.318.258-1.809.224-1.999-.045-.083-.116-.167-.12-.25-.01-.166.221-.926.301-.792.083.057-.091.024-.166-.073-.166s-.177.056-.177.125c0 .149-1.439.158-1.588.009-.057-.057-.332-.038-.612.042-.283.081-.629.083-.779.004-.149-.078-.637-.105-1.084-.059-.61.062-.782.033-.688-.119.093-.151.046-.16-.187-.036-.355.188-2.237.152-2.563-.05-.156-.097-.177-.068-.076.1.12.199.099.2-.141.005-.201-.163-.282-.171-.282-.03 0 .131-.127.156-.375.074-.45-.148-1.958-.206-1.958-.075 0 .116-.886.098-1.096-.022-.085-.048-.996-.076-2.025-.062-1.029.014-1.779-.033-1.667-.104.132-.084.068-.131-.18-.133-.212-.001-.344.065-.293.146.05.082-.208.073-.574-.02-.49-.124-.729-.116-.908.032-.133.111-.33.148-.436.082-.252-.156-1.507-.241-1.417-.096.038.061-.506.028-1.209-.074-.819-.118-1.353-.127-1.487-.025-.142.109-.208.09-.208-.06 0-.161-.05-.171-.184-.037-.117.117-.357.134-.666.045-.286-.082-.483-.076-.483.016 0 .086-.113.155-.25.155-.138 0-.25-.067-.25-.149 0-.084-.252-.092-.575-.019-.317.071-.612.093-.656.048-.157-.157-1.269-.194-1.269-.042 0 .094-.163.092-.413-.003-.226-.086-1.014-.138-1.75-.116-.735.022-1.337.001-1.337-.048 0-.048-.356-.066-.792-.04-1.079.066-.993.066-2.208-.015-.623-.041-1.178.003-1.305.104-.151.12-.256.121-.333.004-.062-.095-.356-.159-.654-.144-.298.016-.543-.052-.544-.151-.002-.098-.071-.07-.155.062-.117.185-.241.2-.539.067-.213-.096-.794-.15-1.292-.121-.498.03-.998-.022-1.11-.116-.113-.094-.244-.107-.292-.03-.047.077-.373.156-.723.177-.393.022-.555-.017-.422-.104.257-.169-1.498-.133-1.772.037-.102.063-.346.029-.543-.076-.263-.141-.326-.142-.24-.002.119.191-.561.143-.895-.064-.087-.054-.206-.02-.265.075-.058.094-.195.115-.303.046-.108-.069-1.059-.145-2.113-.169a318.406 318.406 0 01-3.109-.086c-.656-.023-1.157.017-1.112.089.044.072-.207.091-.558.043-.351-.048-1.463-.127-2.471-.175-1.009-.048-1.965-.129-2.125-.179-.161-.051-.292-.018-.292.071 0 .18-.307.169-.613-.023-.109-.067-.244-.047-.301.045-.065.105-.251.071-.5-.093-.309-.202-.474-.219-.744-.074-.213.114-.812.151-1.553.097-.663-.049-2.668-.103-4.456-.119-1.787-.016-3.32-.068-3.406-.114-.086-.047-1.324-.093-2.75-.103-1.427-.009-2.676-.068-2.776-.131-.1-.062-.473-.033-.827.065-.467.129-.663.127-.707-.006C.07.459 0 2.256 0 10.833V20.5h400V.234l-.603.07c-.339.04-.652-.011-.717-.116-.085-.137-.166-.136-.305.003M243.296 6.289c.392.035.992.035 1.333-.001.342-.036.021-.065-.712-.064-.734 0-1.013.03-.621.065m31.579.169c.985.029 2.598.029 3.583 0 .986-.03.179-.054-1.791-.054-1.971 0-2.777.024-1.792.054" fill="#1a9bb2" fill-rule="evenodd" />
</svg>