<svg xmlns="http://www.w3.org/2000/svg" width="400" height="67.75"><path d="M112.303.086c-.044.043-3.54.083-7.769.087-4.692.006-7.729.071-7.789.168-.054.087-.225.154-.38.147-.232-.009-.223-.039.052-.167.216-.101-.431-.124-1.834-.065-1.191.05-5.704.089-10.028.086-4.324-.003-7.887.06-7.917.14-.049.13-13.257.339-23.971.38-2.733.01-4.163.077-4.324.202-.183.142-.211.137-.115-.022.148-.247-.276-.283-.697-.059-.277.147-10.009.31-21.531.359-3.254.014-5.992.085-6.083.158-.144.113-10.014.3-17.542.333L0 1.843v31.828C0 65.389.001 65.5.333 65.5c.184 0 .334.074.334.165 0 .09.168.162.375.159.716-.01 1.699.193 1.811.375.068.11.354.144.711.086.328-.053.634-.035.681.04.046.074.39.14.765.145.375.005.777.089.894.187.271.224-1.314.196 15.846.284 8.855.045 14.855.138 14.887.23.033.092 4.671.156 11.553.16 6.325.004 11.463-.051 11.42-.121-.043-.069 2.146-.071 4.864-.003 2.718.068 23.029.106 45.135.083 22.106-.022 40.16.013 40.12.078-.074.119 53.311.192 151.354.206 63.693.009 77.374-.039 77.807-.271.226-.121.284-.117.204.014-.076.121.113.183.563.183.372 0 .676-.056.676-.125s4.069-.125 9.042-.125 9.342-.054 9.708-.12c.446-.081.584-.068.417.039-.201.128-.177.16.125.162l.376.002-.042-30.458-.042-30.458-1.084-.017c-.595-.009-1.159.042-1.253.113-.093.072-.66.16-1.258.195-.599.035-1.19.127-1.314.204-.161.099-.188.077-.093-.075.105-.17-.034-.19-.66-.097-.435.066-1.74.121-2.898.123-1.159.002-2.182.063-2.274.136-.226.18-9.091.346-17.969.337-4.885-.004-7.268.049-7.199.162.069.11-.578.168-1.863.165-1.083-.001-3.431.031-5.219.071-8.189.188-46.553-.019-46.639-.251-.076-.206-2.816-.19-2.944.017-.133.215-.866.217-.999.002-.063-.103-2.624-.17-6.884-.179-3.731-.009-7.552-.039-8.49-.067-.939-.028-1.677-.004-1.641.055.036.058-.108.106-.319.106-.212 0-.353-.052-.315-.114.039-.063-2.38-.116-5.375-.118-3.547-.003-5.507-.065-5.62-.178-.222-.222-1.721-.227-1.857-.007a.385.385 0 01-.302.164c-.119-.001-.098-.067.052-.164.165-.107-1.281-.164-4.25-.17-7.579-.015-13.479-.159-13.653-.333-.09-.09-.542-.158-1.005-.152-.624.009-.756.049-.509.155.272.117.282.145.052.155-.155.006-.322-.054-.372-.134-.049-.08-.897-.152-1.885-.16-3.571-.029-8.463-.23-8.545-.35-.046-.068-.758-.135-1.583-.15-2.642-.045-4.489-.196-4.886-.398-.312-.16-.415-.151-.539.045-.084.133-.154.16-.156.06-.001-.102-.313-.182-.711-.183-.389 0-1.082-.044-1.539-.097-.483-.056-.92-.023-1.042.078-.124.103-.21.109-.21.015 0-.088-.467-.176-1.038-.197-.571-.021-1.078-.102-1.127-.181-.049-.079-.932-.13-1.962-.114-1.03.016-1.873-.021-1.873-.083 0-.061-.761-.118-1.691-.125-.931-.008-1.774-.082-1.875-.165-.102-.084-.897-.16-1.768-.171a97.92 97.92 0 01-3.083-.096 63.079 63.079 0 00-2.552-.08c-.645-.001-1.012-.066-.95-.166.065-.105-.762-.15-2.308-.125-1.325.021-2.379-.01-2.342-.069.037-.059-1.031-.114-2.372-.123-1.342-.01-2.523-.087-2.626-.172-.103-.086-.749-.153-1.436-.149-3.45.019-11.759-.252-11.843-.386-.135-.217-1.82-.134-1.824.089-.001.124-.041.127-.125.008-.071-.101-.995-.191-2.205-.215-3.678-.072-6.079-.216-6.242-.374-.232-.225-.758-.187-.761.055-.002.157-.033.16-.128.01-.077-.121-.469-.182-1.009-.158-.485.021-.915-.014-.955-.079-.04-.064-.645-.123-1.344-.13-.699-.008-1.363-.089-1.474-.182-.112-.092-.683-.169-1.27-.17-1.576-.004-3.555-.185-3.651-.334-.046-.072-.421-.133-.833-.136-1.71-.013-4.091-.255-4.203-.428-.087-.134-.214-.127-.459.025-.186.115-.338.146-.338.069 0-.077-.094-.147-.208-.156-.115-.009-1.087-.07-2.161-.136-1.087-.067-1.912-.187-1.86-.271.053-.086-.506-.139-1.297-.125-.765.014-1.534-.032-1.71-.103-.249-.1-.287-.076-.176.109.119.197.099.201-.124.02-.147-.118-.555-.222-.907-.229-3.07-.064-46.194-.112-46.254-.052" fill="#24b4c4" fill-rule="evenodd"/></svg>