<svg xmlns="http://www.w3.org/2000/svg" width="400" height="331"><g fill-rule="evenodd"><path d="M254.313 5.672c.24.063.634.063.875 0 .24-.063.043-.114-.438-.114s-.678.051-.437.114m28.753.257c.38.058.942.056 1.25-.003.307-.059-.003-.106-.691-.104-.687.001-.939.05-.559.107" fill="#39f"/><path d="M252.563 5.672c.24.063.634.063.875 0 .24-.063.043-.114-.438-.114s-.678.051-.437.114m28.125.254c.309.06.815.06 1.125 0 .309-.059.056-.108-.563-.108s-.872.049-.562.108" fill="#3bb1d8"/><path d="M251.063 5.672c.24.063.634.063.875 0 .24-.063.043-.114-.438-.114s-.678.051-.437.114m27.375.254c.309.06.815.06 1.125 0 .309-.059.056-.108-.563-.108s-.872.049-.562.108" fill="#43c9c9"/><path d="M297.697 6.185c.865.049 2.215.049 3-.001.786-.049.078-.089-1.572-.089-1.65.001-2.292.041-1.428.09m15.991 0c.859.049 2.265.049 3.125 0 .859-.049.156-.089-1.563-.089-1.719 0-2.422.04-1.562.089" fill="#55c5d3"/><path d="M287.682 6.18a9.201 9.201 0 001.75.002c.519-.054.155-.099-.807-.1-.962-.001-1.387.043-.943.098m33.756-.004c.309.06.815.06 1.125 0 .309-.059.056-.108-.563-.108s-.872.049-.562.108" fill="#55c4d3"/><path d="M265.563 5.922c.24.063.634.063.875 0 .24-.063.043-.114-.438-.114s-.678.051-.437.114" fill="#4fc6d3"/><path d="M259.063 5.922c.24.063.634.063.875 0 .24-.063.043-.114-.438-.114s-.678.051-.437.114m32.884.263c.865.049 2.215.049 3-.001.786-.049.078-.089-1.572-.089-1.65.001-2.292.041-1.428.09m27.119-.006c.38.058.942.056 1.25-.003.307-.059-.003-.106-.691-.104-.687.001-.939.05-.559.107" fill="#56c6d6"/><path d="M262.313 5.922c.24.063.634.063.875 0 .24-.063.043-.114-.438-.114s-.678.051-.437.114m42.388.265c1.416.044 3.666.044 5-.001 1.333-.045.174-.081-2.576-.081s-3.841.037-2.424.082" fill="#52c7d6"/><path d="M267.19 5.927c.311.06.761.057 1-.005.239-.063-.015-.112-.565-.109-.55.003-.746.054-.435.114" fill="#55c3d7"/><path d="M247.813 5.672c.24.063.634.063.875 0 .24-.063.043-.114-.438-.114s-.678.051-.437.114m26.003.257c.38.058.942.056 1.25-.003.307-.059-.003-.106-.691-.104-.687.001-.939.05-.559.107" fill="#58c7d7"/><path d="M246.313 5.672c.24.063.634.063.875 0 .24-.063.043-.114-.438-.114s-.678.051-.437.114m25.253.257c.38.058.942.056 1.25-.003.307-.059-.003-.106-.691-.104-.687.001-.939.05-.559.107" fill="#57c9d7"/><path d="M394.375.771c-10.444 1.293-32.823 3.462-46.25 4.482-19.429 1.475-74.895 1.199-202.875-1.01C101.338 3.484 41.817 2.33 16.625 1.749 10.712 1.612 4.553 1.5 2.938 1.5H0V331h400V.25l-.937.028c-.516.016-2.625.238-4.688.493" fill="#54cad8"/><path d="M276.066 5.929c.38.058.942.056 1.25-.003.307-.059-.003-.106-.691-.104-.687.001-.939.05-.559.107" fill="#55c6d9"/><path d="M269.188 5.926c.309.06.815.06 1.125 0 .309-.059.056-.108-.563-.108s-.872.049-.562.108" fill="#55ccd7"/></g></svg>