<?xml version="1.0" standalone="no"?>
<!DOCTYPE svg PUBLIC "-//W3C//DTD SVG 20010904//EN"
 "http://www.w3.org/TR/2001/REC-SVG-20010904/DTD/svg10.dtd">
<svg version="1.0" xmlns="http://www.w3.org/2000/svg"
 width="260.000000pt" height="260.000000pt" viewBox="0 0 260.000000 260.000000"
 preserveAspectRatio="xMidYMid meet">
<metadata>
Created by potrace 1.11, written by Peter Selinger 2001-2013
</metadata>
<g transform="translate(0.000000,260.000000) scale(0.100000,-0.100000)"
fill="#000000" stroke="none">
<path d="M798 2594 c-2 -1 -32 -5 -68 -8 -36 -3 -74 -8 -85 -10 -11 -2 -40 -7
-65 -10 -25 -3 -56 -8 -70 -10 -14 -3 -54 -10 -90 -16 -36 -6 -85 -15 -110
-20 -25 -5 -56 -12 -70 -14 -14 -2 -65 -14 -113 -26 -64 -17 -91 -28 -100 -44
-9 -15 -12 -94 -12 -276 0 -420 11 -459 114 -405 25 12 63 16 194 15 213 0
604 -11 912 -25 61 -3 169 -8 240 -11 205 -9 292 -13 405 -20 198 -13 391 -9
580 11 57 6 110 27 121 47 6 11 11 53 11 93 0 71 -27 233 -42 248 -4 4 -20 -2
-36 -15 -40 -33 -76 -47 -137 -54 -29 -3 -71 -12 -94 -21 -52 -19 -167 -13
-345 17 -32 6 -68 12 -80 14 -13 2 -41 8 -63 12 -22 4 -43 8 -47 9 -3 0 -10 3
-14 8 -4 4 -15 7 -25 7 -36 0 -126 48 -170 90 -81 78 -192 150 -280 183 -46
18 -77 46 -171 159 -26 31 -61 61 -77 66 -25 9 -206 14 -213 6z"/>
<path d="M140 1659 c0 -18 50 -36 69 -25 5 4 12 2 16 -3 3 -5 13 -9 23 -9 9 0
34 -2 55 -6 20 -3 54 -9 75 -12 20 -3 46 -7 57 -9 11 -2 40 -6 65 -9 25 -3 56
-8 70 -11 14 -3 43 -7 65 -10 22 -3 54 -8 70 -11 33 -6 46 -8 120 -19 53 -7
75 -11 115 -20 14 -3 43 -7 65 -9 22 -2 51 -7 65 -10 28 -6 68 -14 120 -22 19
-2 71 -12 115 -21 44 -9 89 -17 100 -19 73 -11 164 -33 200 -49 36 -15 69 -21
156 -30 144 -15 425 -28 609 -28 210 0 225 11 221 168 -1 39 -3 79 -5 90 -3
11 -5 23 -5 26 -1 8 -278 2 -321 -7 -65 -13 -572 -8 -940 11 -47 2 -143 7
-215 10 -229 11 -278 14 -385 20 -58 3 -139 8 -180 10 -41 2 -127 7 -190 10
-63 3 -136 7 -162 9 -40 2 -48 0 -48 -15z"/>
<path d="M25 1508 c-6 -17 -13 -60 -15 -96 -6 -111 -5 -820 0 -826 25 -24 940
-38 1489 -21 261 7 284 9 371 31 87 22 459 21 667 -1 32 -3 43 0 49 13 10 23
14 504 4 567 -11 74 -32 82 -145 55 -45 -10 -137 -8 -246 5 -63 7 -134 14
-194 20 -33 3 -76 7 -95 10 -54 7 -167 16 -260 20 -47 2 -112 7 -145 10 -33 3
-89 7 -125 10 -36 3 -83 7 -105 10 -22 2 -76 7 -120 11 -44 3 -87 7 -95 9 -8
2 -51 6 -95 10 -44 4 -91 9 -105 11 -24 4 -56 8 -157 20 -105 12 -263 35 -328
48 -11 2 -40 7 -65 12 -52 9 -43 7 -100 23 -25 7 -47 16 -50 20 -23 28 -65 55
-91 56 -26 2 -33 -3 -44 -27z"/>
<path d="M2450 493 c-30 -8 -68 -16 -85 -18 -16 -3 -64 -11 -105 -19 -41 -8
-78 -13 -81 -10 -4 2 -10 1 -12 -3 -5 -8 -610 -7 -937 2 -285 7 -479 14 -615
20 -66 3 -176 7 -245 10 -145 6 -232 12 -307 20 -60 6 -55 15 -55 -100 0 -200
0 -204 28 -228 14 -12 45 -30 69 -39 47 -18 208 -53 291 -63 27 -3 65 -7 84
-10 77 -10 217 -22 365 -30 50 -3 131 -8 180 -12 50 -3 417 -7 818 -7 638 -1
728 1 732 14 8 29 15 136 16 245 2 163 0 209 -10 224 -12 18 -65 20 -131 4z"/>
</g>
</svg>
